<svg xmlns="http://www.w3.org/2000/svg" width="433" height="347" viewBox="0 0 433 347"><g transform="translate(-227 -382)"><rect width="433" height="347" rx="30" transform="translate(227 382)" fill="#fff" opacity="0.782"/><g transform="translate(273.267 435.207)"><path d="M277.423,245.466c-1.046-2.669-2.244-5.351-3.574-8a84.341,84.341,0,0,0-11.663-17.712,44.621,44.621,0,0,0-6.039-5.785,20.15,20.15,0,0,0-5.615-3.221,28.708,28.708,0,0,0-11.364-2.224c-.29,0-.585,0-.877.011q.006-.086.012-.171H192.316q.006.086.012.171c-.291-.008-.591-.012-.892-.012a29.584,29.584,0,0,0-11.543,2.223,20.57,20.57,0,0,0-5.707,3.22,45.028,45.028,0,0,0-6.138,5.786,84.24,84.24,0,0,0-11.856,17.714,94.446,94.446,0,0,0-4.341,9.841c-11.961,34.482-44.608,54.5-73,44.726-25.835-8.9-39.258-39.4-32.57-70.849l12.539-89.219a80.891,80.891,0,0,1,6.543-31.175c11.383-26.816,34.874-43.974,58.5-45.358,16.809-3.651,43.558,4.8,69.3,23.345q.332.183.67.361a44.925,44.925,0,0,0,9.649,3.571,53.214,53.214,0,0,0,12.556,1.54,50.581,50.581,0,0,0,12.232-1.54,42.911,42.911,0,0,0,9.717-3.74c25.222-18.273,51.334-26.817,68.207-23.792,21.992,1.016,44.843,17.015,57.3,42.554a83.878,83.878,0,0,1,8.475,31.609l.04,0,11.04,89.91c7.418,33.5-7.743,65.923-35.325,73.832a45.427,45.427,0,0,1-12.545,1.76C310.47,294.835,286.323,275,277.423,245.466Z" transform="translate(-44.578 -54.576)" fill="#6d5af9"/><ellipse cx="15.257" cy="15.257" rx="15.257" ry="15.257" transform="translate(157.103 62.244)" fill="#5bdceb"/><path d="M18.252,7.724H3.09A3.09,3.09,0,0,1,0,4.635V3.09A3.09,3.09,0,0,1,3.09,0H18.375c4.144,0,7.5,1.729,7.5,3.862s-3.359,3.862-7.5,3.862Z" transform="translate(159.421 41.001)" fill="#5bdceb"/><g transform="translate(206.543 37.139)"><ellipse cx="55.619" cy="55.619" rx="55.619" ry="55.619" transform="translate(0 0)" fill="#5bdceb"/><ellipse cx="12.167" cy="12.167" rx="12.167" ry="12.167" transform="translate(43.259 18.926)" fill="#fff"/><ellipse cx="12.167" cy="12.167" rx="12.167" ry="12.167" transform="translate(18.926 43.259)" fill="#fff"/><ellipse cx="12.167" cy="12.167" rx="12.167" ry="12.167" transform="translate(43.259 66.434)" fill="#fff"/><ellipse cx="12.167" cy="12.167" rx="12.167" ry="12.167" transform="translate(67.593 42.101)" fill="#fff"/></g><g transform="translate(26.939 37.139)"><ellipse cx="55.619" cy="55.619" rx="55.619" ry="55.619" transform="translate(0 0)" fill="#5bdceb"/><path d="M18.154,50.212V43.259h-5.6a12.553,12.553,0,1,1,0-25.105h5.6V12.746a12.746,12.746,0,0,1,25.492,0v5.408H48.86a12.553,12.553,0,1,1,0,25.105H43.646v6.953a12.746,12.746,0,0,1-25.492,0Z" transform="translate(25.106 24.333)" fill="#fff"/></g></g></g></svg>