<svg xmlns="http://www.w3.org/2000/svg" width="192.159" height="136.034" viewBox="0 0 192.159 136.034"><path d="M164.074,136.034a27.828,27.828,0,0,1-10.273-2.015,33.764,33.764,0,0,1-9.377-5.689,40.029,40.029,0,0,1-7.7-8.825,44.662,44.662,0,0,1-5.253-11.423c-.588-1.505-1.267-3.03-2.018-4.531a47.775,47.775,0,0,0-6.585-10.029,25.245,25.245,0,0,0-3.409-3.276,11.388,11.388,0,0,0-3.171-1.823,16.166,16.166,0,0,0-6.416-1.259c-.175,0-.342,0-.495.006,0-.032,0-.064.006-.1H83.414c0,.016,0,.032,0,.047s0,.034,0,.05c-.164,0-.333-.007-.5-.007A16.659,16.659,0,0,0,76.4,88.422a11.6,11.6,0,0,0-3.222,1.823,25.4,25.4,0,0,0-3.466,3.276,47.688,47.688,0,0,0-6.693,10.03,53.477,53.477,0,0,0-2.451,5.572,44.857,44.857,0,0,1-5.574,11,40.434,40.434,0,0,1-7.828,8.429,34.411,34.411,0,0,1-9.333,5.4,28.413,28.413,0,0,1-10.087,1.9,25.7,25.7,0,0,1-17.952-7.292,30.248,30.248,0,0,1-6.523-9.381A40.378,40.378,0,0,1,.963,94.333L8.042,43.817a44.675,44.675,0,0,1,.928-8.8,47.278,47.278,0,0,1,2.767-8.857A44.939,44.939,0,0,1,25.659,7.924a37.967,37.967,0,0,1,9.222-5.233A32.367,32.367,0,0,1,44.764.483a22.284,22.284,0,0,1,4.72-.472,45.542,45.542,0,0,1,16.1,3.509A84.909,84.909,0,0,1,83.893,13.7c.138.076.261.143.378.2a25.326,25.326,0,0,0,5.448,2.022,29.955,29.955,0,0,0,7.088.872,28.485,28.485,0,0,0,6.907-.872A24.2,24.2,0,0,0,109.2,13.81,85.1,85.1,0,0,1,127.555,3.538,45.338,45.338,0,0,1,143.673,0a22.923,22.923,0,0,1,4.036.338A33.673,33.673,0,0,1,165.9,7.179a46.607,46.607,0,0,1,14.157,17.253,49.418,49.418,0,0,1,3.337,8.961,45.834,45.834,0,0,1,1.448,8.937l.022,0L191.1,93.234a41.11,41.11,0,0,1-2.562,26.335c-3.7,7.817-9.877,13.31-17.383,15.469A25.639,25.639,0,0,1,164.074,136.034ZM148.018,21.029a31.6,31.6,0,0,0-6.329.639,31.188,31.188,0,0,0-11.229,4.738,31.584,31.584,0,0,0-11.377,13.855,31.36,31.36,0,0,0-1.83,5.911,31.882,31.882,0,0,0,0,12.694,31.369,31.369,0,0,0,4.725,11.261,31.5,31.5,0,0,0,13.816,11.409,31.3,31.3,0,0,0,29.782-2.9,31.53,31.53,0,0,0-5.334-55.13,31.223,31.223,0,0,0-5.9-1.835A31.6,31.6,0,0,0,148.018,21.029Zm-101.406,0a31.5,31.5,0,0,0-22.2,53.759A31.447,31.447,0,1,0,58.837,23.5,31.142,31.142,0,0,0,46.613,21.029Zm50.7,14.215a8.638,8.638,0,1,0,8.614,8.638A8.636,8.636,0,0,0,97.316,35.243ZM91.755,23.215a1.749,1.749,0,0,0-1.745,1.75v.875a1.749,1.749,0,0,0,1.745,1.75h8.63c2.336,0,4.236-.981,4.236-2.187s-1.9-2.187-4.236-2.187h-8.63ZM147.91,72.42a6.875,6.875,0,1,1,6.33-4.207,6.9,6.9,0,0,1-3.656,3.666A6.812,6.812,0,0,1,147.91,72.42ZM46.831,70.453a7.205,7.205,0,0,1-7.2-7.2V59.3H36.492a7.107,7.107,0,1,1,0-14.215h3.142V42a7.2,7.2,0,0,1,14.394,0v3.083h2.924a7.107,7.107,0,1,1,0,14.215H54.028v3.956A7.2,7.2,0,0,1,46.831,70.453ZM134.17,59.3a6.842,6.842,0,0,1-4.857-2.018A6.9,6.9,0,0,1,131.5,46.063,6.887,6.887,0,1,1,134.17,59.3Zm27.478-.656a6.842,6.842,0,0,1-4.857-2.018,6.852,6.852,0,1,1,7.531,1.476A6.8,6.8,0,0,1,161.648,58.643ZM147.91,45.521a6.875,6.875,0,1,1,6.33-4.207,6.9,6.9,0,0,1-3.656,3.666A6.811,6.811,0,0,1,147.91,45.521Z" transform="translate(-0.003)" fill="#fff"/></svg>