<svg xmlns="http://www.w3.org/2000/svg" xmlns:xlink="http://www.w3.org/1999/xlink" width="229.085" height="69" viewBox="0 0 229.085 69"><defs><linearGradient id="a" x1="0.915" y1="6.617" x2="-0.386" y2="5.947" gradientUnits="objectBoundingBox"><stop offset="0" stop-color="#00a0ff"/><stop offset="0.01" stop-color="#00a1ff"/><stop offset="0.26" stop-color="#00beff"/><stop offset="0.51" stop-color="#00d2ff"/><stop offset="0.76" stop-color="#00dfff"/><stop offset="1" stop-color="#00e3ff"/></linearGradient><linearGradient id="b" x1="1.077" y1="17.089" x2="-1.306" y2="17.089" gradientUnits="objectBoundingBox"><stop offset="0" stop-color="#ffe000"/><stop offset="0.41" stop-color="#ffbd00"/><stop offset="0.78" stop-color="orange"/><stop offset="1" stop-color="#ff9c00"/></linearGradient><linearGradient id="c" x1="0.862" y1="10.858" x2="-0.501" y2="9.09" gradientUnits="objectBoundingBox"><stop offset="0" stop-color="#ff3a44"/><stop offset="1" stop-color="#c31162"/></linearGradient><linearGradient id="d" x1="-0.188" y1="13.578" x2="0.421" y2="12.788" gradientUnits="objectBoundingBox"><stop offset="0" stop-color="#32a071"/><stop offset="0.07" stop-color="#2da771"/><stop offset="0.48" stop-color="#15cf74"/><stop offset="0.8" stop-color="#06e775"/><stop offset="1" stop-color="#00f076"/></linearGradient></defs><g transform="translate(0.5 0.5)"><rect width="228" height="68" rx="5" stroke="#707070" stroke-width="1"/><path d="M219.637,1.352a7.1,7.1,0,0,1,7.1,7.1V59.133a7.1,7.1,0,0,1-7.1,7.1H8.448a7.1,7.1,0,0,1-7.1-7.1V8.448a7.1,7.1,0,0,1,7.1-7.1h211.19m0-1.352H8.448A8.448,8.448,0,0,0,0,8.448V59.133a8.448,8.448,0,0,0,8.448,8.448h211.19a8.448,8.448,0,0,0,8.448-8.448V8.448A8.448,8.448,0,0,0,219.637,0Z" fill="#a6a6a6" stroke="#707070" stroke-width="1"/><path d="M51.606,12.564a4.579,4.579,0,0,1-1.267,3.379,4.917,4.917,0,0,1-3.717,1.5,5.221,5.221,0,0,1-5.271-5.288A5.28,5.28,0,0,1,48.7,7.292a4.173,4.173,0,0,1,1.588,1.132l-.9.9a3.379,3.379,0,0,0-2.771-1.2,3.92,3.92,0,0,0-3.937,4.038,3.987,3.987,0,0,0,6.758,2.923,3.193,3.193,0,0,0,.845-2.061H46.621V11.8h4.917A4.292,4.292,0,0,1,51.606,12.564Z" transform="translate(28.511 4.737)" fill="#fff" stroke="#fff" stroke-miterlimit="10" stroke-width="0.2"/><path d="M54.413,8.25H49.852v3.21h4.156v1.216H49.852v3.21h4.562v1.25H48.5V7h5.913Z" transform="translate(33.442 4.827)" fill="#fff" stroke="#fff" stroke-miterlimit="10" stroke-width="0.2"/><path d="M56.969,17.137h-1.3V8.25H52.83V7h7.045V8.25H56.969Z" transform="translate(36.427 4.827)" fill="#fff" stroke="#fff" stroke-miterlimit="10" stroke-width="0.2"/><path d="M59.94,17.137V7h1.3V17.137Z" transform="translate(41.33 4.827)" fill="#fff" stroke="#fff" stroke-miterlimit="10" stroke-width="0.2"/><path d="M65.819,17.137h-1.3V8.25H61.68V7h6.961V8.25H65.819Z" transform="translate(42.529 4.827)" fill="#fff" stroke="#fff" stroke-miterlimit="10" stroke-width="0.2"/><path d="M77.251,15.913a5.271,5.271,0,0,1-7.434,0,5.187,5.187,0,0,1-1.487-3.751,5.2,5.2,0,1,1,10.407,0,5.187,5.187,0,0,1-1.487,3.751Zm-6.471-.845a3.9,3.9,0,0,0,5.508,0,3.97,3.97,0,0,0,1.132-2.906,3.97,3.97,0,0,0-1.2-2.906,3.9,3.9,0,0,0-5.508,0,3.97,3.97,0,0,0-1.064,2.906,3.97,3.97,0,0,0,1.132,2.906Z" transform="translate(47.114 4.733)" fill="#fff" stroke="#fff" stroke-miterlimit="10" stroke-width="0.2"/><path d="M75.58,17.137V7h1.588L82.1,14.89h0V7h1.3V17.137H82.051l-5.17-8.262h0v8.262Z" transform="translate(52.114 4.827)" fill="#fff" stroke="#fff" stroke-miterlimit="10" stroke-width="0.2"/><path d="M86.941,25.029a7.18,7.18,0,1,0,7.214,7.18,7.079,7.079,0,0,0-7.214-7.18Zm0,11.539A4.359,4.359,0,1,1,91,32.209a4.156,4.156,0,0,1-4.055,4.359ZM71.212,25.029a7.18,7.18,0,1,0,7.2,7.18,7.079,7.079,0,0,0-7.214-7.18Zm0,11.539a4.359,4.359,0,1,1,4.038-4.359,4.156,4.156,0,0,1-4.055,4.359ZM52.475,27.242v3.041h7.3a6.369,6.369,0,0,1-1.69,3.835,7.468,7.468,0,0,1-5.626,2.23,8.11,8.11,0,0,1,0-16.219,7.772,7.772,0,0,1,5.525,2.179l2.146-2.146A10.627,10.627,0,0,0,52.475,17a11.168,11.168,0,1,0,0,22.319A9.863,9.863,0,0,0,62.9,29.067a9.917,9.917,0,0,0-.169-1.909Zm76.552,2.365a6.639,6.639,0,0,0-12.908,2.6,7.028,7.028,0,0,0,7.13,7.18,7.147,7.147,0,0,0,5.981-3.176l-2.45-1.69a4.105,4.105,0,0,1-3.531,1.994,3.649,3.649,0,0,1-3.48-2.179l9.613-3.97Zm-9.8,2.4a3.937,3.937,0,0,1,3.751-4.19,2.788,2.788,0,0,1,2.669,1.521Zm-7.806,6.961h3.159V17.848h-3.159Zm-5.17-12.333h-.118a5.069,5.069,0,0,0-3.785-1.69,7.2,7.2,0,0,0,0,14.378,4.9,4.9,0,0,0,3.785-1.69h.1v1.031c0,2.754-1.47,4.224-3.835,4.224a3.97,3.97,0,0,1-3.616-2.551l-2.754,1.149a6.843,6.843,0,0,0,6.369,4.241c3.7,0,6.758-2.179,6.758-7.485V25.451h-2.906Zm-3.616,9.934a4.376,4.376,0,0,1,0-8.718,4.055,4.055,0,0,1,3.835,4.359,4.021,4.021,0,0,1-3.852,4.359Zm41.19-18.72h-7.569V38.967h3.159V30.959h4.41a6.572,6.572,0,1,0,0-13.111Zm0,10.137h-4.41v-7.2h4.477a3.624,3.624,0,0,1,0,7.248Zm19.48-3.041a5.913,5.913,0,0,0-5.626,3.227l2.8,1.166a2.99,2.99,0,0,1,2.872-1.554,3.041,3.041,0,0,1,3.379,2.72v.22a6.978,6.978,0,0,0-3.295-.811c-3.024,0-6.082,1.69-6.082,4.748a4.883,4.883,0,0,0,5.238,4.646,4.443,4.443,0,0,0,4.055-2.027h.1v1.69H169.8V30.841c0-3.7-2.8-5.846-6.4-5.846Zm-.389,11.573c-1.031,0-2.467-.524-2.467-1.791,0-1.69,1.791-2.247,3.379-2.247a5.609,5.609,0,0,1,2.872.71,3.818,3.818,0,0,1-3.7,3.379Zm17.96-11.066-3.616,9.157h-.1l-3.751-9.157h-3.379l5.626,12.807-3.21,7.113h3.295l8.65-19.919Zm-28.4,13.516h3.159V17.848h-3.159Z" transform="translate(28.183 11.718)" fill="#fff" stroke="#707070" stroke-width="1"/><path d="M10.747,7.588A3.379,3.379,0,0,0,10,9.954V47.326a3.379,3.379,0,0,0,.777,2.365l.118.118L31.8,28.893V28.4L10.865,7.47Z" transform="translate(6.892 5.151)" stroke="#707070" stroke-width="1" fill="url(#a)"/><path d="M29.827,30.182,22.9,23.2v-.49l6.927-6.995.152.084,8.3,4.714c2.365,1.335,2.365,3.531,0,4.883l-8.262,4.7Z" transform="translate(15.79 10.839)" stroke="#707070" stroke-width="1" fill="url(#b)"/><path d="M38.621,27.147,31.491,20,10.44,41.051a2.754,2.754,0,0,0,3.514.1L38.638,27.13" transform="translate(7.199 13.79)" stroke="#707070" stroke-width="1" fill="url(#c)"/><path d="M38.628,21.741,13.944,7.718a2.754,2.754,0,0,0-3.514.1L31.5,28.871Z" transform="translate(7.192 4.919)" stroke="#707070" stroke-width="1" fill="url(#d)"/><path d="M38.418,24.13,13.937,38.069a2.822,2.822,0,0,1-3.379,0h0l-.118.118h0l.118.118h0a2.8,2.8,0,0,0,3.379,0L38.621,24.282Z" transform="translate(7.199 16.638)" stroke="#707070" stroke-width="1" opacity="0.2" style="isolation:isolate"/><path d="M10.76,33.285a3.379,3.379,0,0,1-.777-2.365v.253a3.379,3.379,0,0,0,.777,2.365l.118-.118Z" transform="translate(6.879 21.32)" stroke="#707070" stroke-width="1" opacity="0.12" style="isolation:isolate"/><path d="M35.448,22.2,27,26.978l.152.152,8.3-4.7A2.957,2.957,0,0,0,37.137,20h0A3.142,3.142,0,0,1,35.448,22.2Z" transform="translate(18.617 13.79)" stroke="#707070" stroke-width="1" opacity="0.12" style="isolation:isolate"/><path d="M14.241,7.951l32.929,18.72a3.143,3.143,0,0,1,1.69,2.2h0a2.957,2.957,0,0,0-1.69-2.433L14.241,7.715C11.892,6.363,10,7.478,10,10.181v.253C10,7.732,11.892,6.616,14.241,7.951Z" transform="translate(6.895 4.923)" fill="#fff" stroke="#707070" stroke-width="1" opacity="0.25" style="isolation:isolate"/></g></svg>